<svg xmlns="http://www.w3.org/2000/svg" viewBox="0 0 16 16" width="16" height="16">
  <!-- Puck - 16x16 Icon -->
  <!-- Jester hat -->
  <rect x="2" y="1" width="2" height="2" fill="#7C3AED"/>
  <rect x="4" y="2" width="2" height="2" fill="#8B5CF6"/>
  <rect x="6" y="1" width="2" height="2" fill="#8B5CF6"/>
  <rect x="8" y="2" width="2" height="2" fill="#8B5CF6"/>
  <rect x="10" y="1" width="2" height="2" fill="#7C3AED"/>
  <rect x="1" y="3" width="2" height="1" fill="#c9a959"/>
  <rect x="12" y="3" width="2" height="1" fill="#c9a959"/>

  <!-- Face -->
  <rect x="4" y="4" width="2" height="2" fill="#FEEBC8"/>
  <rect x="6" y="4" width="2" height="2" fill="#FEEBC8"/>
  <rect x="8" y="4" width="2" height="2" fill="#FEEBC8"/>
  <rect x="4" y="6" width="2" height="2" fill="#FEEBC8"/>
  <rect x="6" y="6" width="2" height="2" fill="#FEEBC8"/>
  <rect x="8" y="6" width="2" height="2" fill="#FEEBC8"/>

  <!-- Eyes -->
  <rect x="5" y="5" width="1" height="1" fill="#1a1a2e"/>
  <rect x="8" y="5" width="1" height="1" fill="#1a1a2e"/>

  <!-- Smirk -->
  <rect x="5" y="7" width="4" height="1" fill="#c44"/>

  <!-- Body -->
  <rect x="4" y="8" width="2" height="2" fill="#8B5CF6"/>
  <rect x="6" y="8" width="2" height="2" fill="#c9a959"/>
  <rect x="8" y="8" width="2" height="2" fill="#8B5CF6"/>

  <rect x="4" y="10" width="2" height="2" fill="#7C3AED"/>
  <rect x="6" y="10" width="2" height="2" fill="#8B5CF6"/>
  <rect x="8" y="10" width="2" height="2" fill="#7C3AED"/>

  <!-- Legs -->
  <rect x="5" y="12" width="2" height="2" fill="#4C1D95"/>
  <rect x="8" y="12" width="2" height="2" fill="#4C1D95"/>

  <!-- Shoes -->
  <rect x="3" y="14" width="3" height="2" fill="#8B5CF6"/>
  <rect x="9" y="14" width="3" height="2" fill="#8B5CF6"/>
</svg>
